<?xml version="1.0" encoding="UTF-8" standalone="no"?>
<!DOCTYPE svg PUBLIC "-//W3C//DTD SVG 1.1//EN"
 "http://www.w3.org/Graphics/SVG/1.1/DTD/svg11.dtd">
<!-- Generated by graphviz version 2.40.1 (20161225.0304)
 -->
<!-- Title: dependencies Pages: 1 -->
<svg width="504pt" height="284pt"
 viewBox="0.00 0.00 504.00 284.00" xmlns="http://www.w3.org/2000/svg" xmlns:xlink="http://www.w3.org/1999/xlink">
<g id="graph0" class="graph" transform="scale(1 1) rotate(0) translate(4 280)">
<title>dependencies</title>
<polygon fill="#ffffff" stroke="transparent" points="-4,4 -4,-280 500,-280 500,4 -4,4"/>
<text text-anchor="start" x="227.0091" y="-42.4" font-family="sans-serif" font-weight="bold" font-size="14.00" fill="#000000">Legend</text>
<polygon fill="#ffffb3" stroke="transparent" points="14,-10 14,-30 34,-30 34,-10 14,-10"/>
<text text-anchor="start" x="37.629" y="-15.4" font-family="sans-serif" font-size="14.00" fill="#000000"> &#160;Declarations</text>
<polygon fill="#8dd3c7" stroke="transparent" points="127,-10 127,-30 147,-30 147,-10 127,-10"/>
<text text-anchor="start" x="150.7251" y="-15.4" font-family="sans-serif" font-size="14.00" fill="#000000"> &#160;Module</text>
<polygon fill="#80b1d3" stroke="transparent" points="213,-10 213,-30 233,-30 233,-10 213,-10"/>
<text text-anchor="start" x="236.7812" y="-15.4" font-family="sans-serif" font-size="14.00" fill="#000000"> &#160;Bootstrap</text>
<polygon fill="#fdb462" stroke="transparent" points="310,-10 310,-30 330,-30 330,-10 310,-10"/>
<text text-anchor="start" x="333.6732" y="-15.4" font-family="sans-serif" font-size="14.00" fill="#000000"> &#160;Providers</text>
<polygon fill="#fb8072" stroke="transparent" points="406,-10 406,-30 426,-30 426,-10 406,-10"/>
<text text-anchor="start" x="429.7258" y="-15.4" font-family="sans-serif" font-size="14.00" fill="#000000"> &#160;Exports</text>
<g id="clust1" class="cluster">
<title>cluster_ApiGunModule</title>
<polygon fill="none" stroke="#000000" stroke-dasharray="1,5" points="86,-70 86,-268 410,-268 410,-70 86,-70"/>
</g>
<g id="clust2" class="cluster">
<title>cluster_ApiGunModule_declarations</title>
<polygon fill="none" stroke="#000000" points="260,-78 260,-130 402,-130 402,-78 260,-78"/>
</g>
<g id="clust5" class="cluster">
<title>cluster_ApiGunModule_exports</title>
<polygon fill="none" stroke="#000000" points="178,-208 178,-260 324,-260 324,-208 178,-208"/>
</g>
<g id="clust7" class="cluster">
<title>cluster_ApiGunModule_providers</title>
<polygon fill="none" stroke="#000000" points="94,-78 94,-130 252,-130 252,-78 94,-78"/>
</g>
<!-- ApiGunComponent -->
<g id="node1" class="node">
<title>ApiGunComponent</title>
<polygon fill="#ffffb3" stroke="#000000" points="394.437,-122 267.563,-122 267.563,-86 394.437,-86 394.437,-122"/>
<text text-anchor="middle" x="331" y="-99.8" font-family="Times,serif" font-size="14.00" fill="#000000">ApiGunComponent</text>
</g>
<!-- ApiGunModule -->
<g id="node2" class="node">
<title>ApiGunModule</title>
<polygon fill="#8dd3c7" stroke="#000000" points="303.1542,-187 300.1542,-191 279.1542,-191 276.1542,-187 198.8458,-187 198.8458,-151 303.1542,-151 303.1542,-187"/>
<text text-anchor="middle" x="251" y="-164.8" font-family="Times,serif" font-size="14.00" fill="#000000">ApiGunModule</text>
</g>
<!-- ApiGunComponent&#45;&gt;ApiGunModule -->
<g id="edge1" class="edge">
<title>ApiGunComponent&#45;&gt;ApiGunModule</title>
<path fill="none" stroke="#000000" d="M285.5544,-122.1061C285.5544,-122.1061 285.5544,-140.991 285.5544,-140.991"/>
<polygon fill="#000000" stroke="#000000" points="282.0544,-140.9909 285.5544,-150.991 289.0544,-140.991 282.0544,-140.9909"/>
</g>
<!-- ApiGunComponent  -->
<g id="node3" class="node">
<title>ApiGunComponent </title>
<polygon fill="#fb8072" stroke="#000000" points="315.9362,-252 186.0638,-252 186.0638,-216 315.9362,-216 315.9362,-252"/>
<text text-anchor="middle" x="251" y="-229.8" font-family="Times,serif" font-size="14.00" fill="#000000">ApiGunComponent </text>
</g>
<!-- ApiGunModule&#45;&gt;ApiGunComponent  -->
<g id="edge2" class="edge">
<title>ApiGunModule&#45;&gt;ApiGunComponent </title>
<path fill="none" stroke="#000000" stroke-dasharray="5,2" d="M251,-187.1061C251,-187.1061 251,-205.991 251,-205.991"/>
<polygon fill="#000000" stroke="#000000" points="247.5001,-205.9909 251,-215.991 254.5001,-205.991 247.5001,-205.9909"/>
</g>
<!-- ApiGunService -->
<g id="node4" class="node">
<title>ApiGunService</title>
<ellipse fill="#fdb462" stroke="#000000" cx="173" cy="-104" rx="71.2075" ry="18"/>
<text text-anchor="middle" x="173" y="-99.8" font-family="Times,serif" font-size="14.00" fill="#000000">ApiGunService</text>
</g>
<!-- ApiGunService&#45;&gt;ApiGunModule -->
<g id="edge3" class="edge">
<title>ApiGunService&#45;&gt;ApiGunModule</title>
<path fill="none" stroke="#000000" d="M221.3884,-117.468C221.3884,-117.468 221.3884,-140.8642 221.3884,-140.8642"/>
<polygon fill="#000000" stroke="#000000" points="217.8885,-140.8641 221.3884,-150.8642 224.8885,-140.8642 217.8885,-140.8641"/>
</g>
</g>
</svg>
