<?xml version="1.0" encoding="UTF-8" standalone="no"?>
<!DOCTYPE svg PUBLIC "-//W3C//DTD SVG 1.1//EN"
 "http://www.w3.org/Graphics/SVG/1.1/DTD/svg11.dtd">
<!-- Generated by graphviz version 2.40.1 (20161225.0304)
 -->
<!-- Title: dependencies Pages: 1 -->
<svg width="504pt" height="284pt"
 viewBox="0.00 0.00 504.00 284.00" xmlns="http://www.w3.org/2000/svg" xmlns:xlink="http://www.w3.org/1999/xlink">
<g id="graph0" class="graph" transform="scale(1 1) rotate(0) translate(4 280)">
<title>dependencies</title>
<polygon fill="#ffffff" stroke="transparent" points="-4,4 -4,-280 500,-280 500,4 -4,4"/>
<text text-anchor="start" x="227.0091" y="-42.4" font-family="sans-serif" font-weight="bold" font-size="14.00" fill="#000000">Legend</text>
<polygon fill="#ffffb3" stroke="transparent" points="14,-10 14,-30 34,-30 34,-10 14,-10"/>
<text text-anchor="start" x="37.629" y="-15.4" font-family="sans-serif" font-size="14.00" fill="#000000"> &#160;Declarations</text>
<polygon fill="#8dd3c7" stroke="transparent" points="127,-10 127,-30 147,-30 147,-10 127,-10"/>
<text text-anchor="start" x="150.7251" y="-15.4" font-family="sans-serif" font-size="14.00" fill="#000000"> &#160;Module</text>
<polygon fill="#80b1d3" stroke="transparent" points="213,-10 213,-30 233,-30 233,-10 213,-10"/>
<text text-anchor="start" x="236.7812" y="-15.4" font-family="sans-serif" font-size="14.00" fill="#000000"> &#160;Bootstrap</text>
<polygon fill="#fdb462" stroke="transparent" points="310,-10 310,-30 330,-30 330,-10 310,-10"/>
<text text-anchor="start" x="333.6732" y="-15.4" font-family="sans-serif" font-size="14.00" fill="#000000"> &#160;Providers</text>
<polygon fill="#fb8072" stroke="transparent" points="406,-10 406,-30 426,-30 426,-10 406,-10"/>
<text text-anchor="start" x="429.7258" y="-15.4" font-family="sans-serif" font-size="14.00" fill="#000000"> &#160;Exports</text>
<g id="clust1" class="cluster">
<title>cluster_ApiGunModule</title>
<polygon fill="none" stroke="#000000" stroke-dasharray="1,5" points="12,-70 12,-268 336,-268 336,-70 12,-70"/>
</g>
<g id="clust2" class="cluster">
<title>cluster_ApiGunModule_declarations</title>
<polygon fill="none" stroke="#000000" points="186,-78 186,-130 328,-130 328,-78 186,-78"/>
</g>
<g id="clust5" class="cluster">
<title>cluster_ApiGunModule_exports</title>
<polygon fill="none" stroke="#000000" points="104,-208 104,-260 250,-260 250,-208 104,-208"/>
</g>
<g id="clust7" class="cluster">
<title>cluster_ApiGunModule_providers</title>
<polygon fill="none" stroke="#000000" points="20,-78 20,-130 178,-130 178,-78 20,-78"/>
</g>
<g id="clust8" class="cluster">
<title>cluster_AppModule</title>
<polygon fill="none" stroke="#000000" stroke-dasharray="1,5" points="344,-70 344,-268 484,-268 484,-70 344,-70"/>
</g>
<g id="clust9" class="cluster">
<title>cluster_AppModule_declarations</title>
<polygon fill="none" stroke="#000000" points="353,-78 353,-130 475,-130 475,-78 353,-78"/>
</g>
<g id="clust13" class="cluster">
<title>cluster_AppModule_bootstrap</title>
<polygon fill="none" stroke="#000000" points="352,-208 352,-260 476,-260 476,-208 352,-208"/>
</g>
<!-- ApiGunComponent -->
<g id="node1" class="node">
<title>ApiGunComponent</title>
<polygon fill="#ffffb3" stroke="#000000" points="320.437,-122 193.563,-122 193.563,-86 320.437,-86 320.437,-122"/>
<text text-anchor="middle" x="257" y="-99.8" font-family="Times,serif" font-size="14.00" fill="#000000">ApiGunComponent</text>
</g>
<!-- ApiGunModule -->
<g id="node2" class="node">
<title>ApiGunModule</title>
<polygon fill="#8dd3c7" stroke="#000000" points="229.1542,-187 226.1542,-191 205.1542,-191 202.1542,-187 124.8458,-187 124.8458,-151 229.1542,-151 229.1542,-187"/>
<text text-anchor="middle" x="177" y="-164.8" font-family="Times,serif" font-size="14.00" fill="#000000">ApiGunModule</text>
</g>
<!-- ApiGunComponent&#45;&gt;ApiGunModule -->
<g id="edge1" class="edge">
<title>ApiGunComponent&#45;&gt;ApiGunModule</title>
<path fill="none" stroke="#000000" d="M211.5544,-122.1061C211.5544,-122.1061 211.5544,-140.991 211.5544,-140.991"/>
<polygon fill="#000000" stroke="#000000" points="208.0544,-140.9909 211.5544,-150.991 215.0544,-140.991 208.0544,-140.9909"/>
</g>
<!-- ApiGunComponent  -->
<g id="node3" class="node">
<title>ApiGunComponent </title>
<polygon fill="#fb8072" stroke="#000000" points="241.9362,-252 112.0638,-252 112.0638,-216 241.9362,-216 241.9362,-252"/>
<text text-anchor="middle" x="177" y="-229.8" font-family="Times,serif" font-size="14.00" fill="#000000">ApiGunComponent </text>
</g>
<!-- ApiGunModule&#45;&gt;ApiGunComponent  -->
<g id="edge2" class="edge">
<title>ApiGunModule&#45;&gt;ApiGunComponent </title>
<path fill="none" stroke="#000000" stroke-dasharray="5,2" d="M177,-187.1061C177,-187.1061 177,-205.991 177,-205.991"/>
<polygon fill="#000000" stroke="#000000" points="173.5001,-205.9909 177,-215.991 180.5001,-205.991 173.5001,-205.9909"/>
</g>
<!-- ApiGunService -->
<g id="node4" class="node">
<title>ApiGunService</title>
<ellipse fill="#fdb462" stroke="#000000" cx="99" cy="-104" rx="71.2075" ry="18"/>
<text text-anchor="middle" x="99" y="-99.8" font-family="Times,serif" font-size="14.00" fill="#000000">ApiGunService</text>
</g>
<!-- ApiGunService&#45;&gt;ApiGunModule -->
<g id="edge3" class="edge">
<title>ApiGunService&#45;&gt;ApiGunModule</title>
<path fill="none" stroke="#000000" d="M147.3884,-117.468C147.3884,-117.468 147.3884,-140.8642 147.3884,-140.8642"/>
<polygon fill="#000000" stroke="#000000" points="143.8885,-140.8641 147.3884,-150.8642 150.8885,-140.8642 143.8885,-140.8641"/>
</g>
<!-- AppComponent -->
<g id="node5" class="node">
<title>AppComponent</title>
<polygon fill="#ffffb3" stroke="#000000" points="466.9399,-122 361.0601,-122 361.0601,-86 466.9399,-86 466.9399,-122"/>
<text text-anchor="middle" x="414" y="-99.8" font-family="Times,serif" font-size="14.00" fill="#000000">AppComponent</text>
</g>
<!-- AppModule -->
<g id="node6" class="node">
<title>AppModule</title>
<polygon fill="#8dd3c7" stroke="#000000" points="455.6571,-187 452.6571,-191 431.6571,-191 428.6571,-187 372.3429,-187 372.3429,-151 455.6571,-151 455.6571,-187"/>
<text text-anchor="middle" x="414" y="-164.8" font-family="Times,serif" font-size="14.00" fill="#000000">AppModule</text>
</g>
<!-- AppComponent&#45;&gt;AppModule -->
<g id="edge4" class="edge">
<title>AppComponent&#45;&gt;AppModule</title>
<path fill="none" stroke="#000000" d="M414,-122.1061C414,-122.1061 414,-140.991 414,-140.991"/>
<polygon fill="#000000" stroke="#000000" points="410.5001,-140.9909 414,-150.991 417.5001,-140.991 410.5001,-140.9909"/>
</g>
<!-- AppComponent  -->
<g id="node7" class="node">
<title>AppComponent </title>
<polygon fill="#80b1d3" stroke="#000000" points="468.439,-252 359.561,-252 359.561,-216 468.439,-216 468.439,-252"/>
<text text-anchor="middle" x="414" y="-229.8" font-family="Times,serif" font-size="14.00" fill="#000000">AppComponent </text>
</g>
<!-- AppModule&#45;&gt;AppComponent  -->
<g id="edge5" class="edge">
<title>AppModule&#45;&gt;AppComponent </title>
<path fill="none" stroke="#000000" stroke-dasharray="1,5" d="M414,-187.1061C414,-187.1061 414,-205.991 414,-205.991"/>
<polygon fill="#000000" stroke="#000000" points="410.5001,-205.9909 414,-215.991 417.5001,-205.991 410.5001,-205.9909"/>
</g>
</g>
</svg>
